# xmcd
#
# Track frame offsets:
#	150
#	17110
#	34510
#	51435
#	83287
#	100217
#	122835
#	145055
#	161222
#	174492
#	189177
#
# Disc length: 2681 seconds
#
# Revision: 1
# Processed by: cddbd v1.5.2PL0 Copyright (c) Steve Scherf et al.
# Submitted via: audiograbber 1.83.01
#
DISCID=850a770b
DTITLE=Outi and Lee - Seifenblasen
DYEAR=1989
DGENRE=Christian Acoustic
TTITLE0=Durch´s Gestrüpp
TTITLE1=Seifenblasen
TTITLE2=Vielversprechend
TTITLE3=Robinson Crusoe
TTITLE4=Seiltänzer
TTITLE5=Spring
TTITLE6=Kind dieser Erde - Ihminen Maan
TTITLE7=Ein neuer Name
TTITLE8=Bereit
TTITLE9=I am happy
TTITLE10=Deep river
EXTD=
EXTT0=
EXTT1=
EXTT2=
EXTT3=
EXTT4=
EXTT5=
EXTT6=
EXTT7=
EXTT8=
EXTT9=
EXTT10=
PLAYORDER=
